<?xml version="1.0" encoding="utf-8"?>
<!-- Generator: Adobe Illustrator 26.3.1, SVG Export Plug-In . SVG Version: 6.00 Build 0)  -->
<svg version="1.1" id="Calque_1" xmlns="http://www.w3.org/2000/svg" xmlns:xlink="http://www.w3.org/1999/xlink" x="0px" y="0px"
	 viewBox="0 0 96 96" style="enable-background:new 0 0 96 96;" xml:space="preserve">
<style type="text/css">
	.st0{fill:#7C33CC;}
	.st1{fill:#FFFFFF;}
</style>
<g>
	<g>
		<circle class="st0" cx="48" cy="48" r="47.32"/>
		<path class="st1" d="M53.2,95.65C22.7,98.89-2.89,73.3,0.35,42.8C2.7,20.57,20.57,2.7,42.8,0.35C73.3-2.89,98.89,22.7,95.65,53.2
			C93.3,75.43,75.43,93.3,53.2,95.65z M53.07,1.57C23.35-1.58-1.58,23.35,1.57,53.07c2.3,21.66,19.71,39.07,41.36,41.36
			c29.72,3.15,54.66-21.78,51.51-51.51C92.14,21.27,74.73,3.86,53.07,1.57z"/>
	</g>
	<path class="st1" d="M45.75,65.07c-3.36-2.1-6.54-4.44-11.22-8.22h-11.7V39.39h11.4c4.44-3.9,7.62-6.24,11.52-8.52h2.04v34.2H45.75
		z M35.49,54.39c3.66,3.06,5.88,4.8,9.84,7.44V34.05c-4.14,2.64-6.48,4.44-10.14,7.8h-9.9v12.54H35.49z M53.19,36.63l1.98-1.5
		c3.54,4.62,5.16,8.58,5.16,12.84s-1.62,8.22-5.16,12.84l-1.98-1.5c3.24-4.32,4.68-7.74,4.68-11.34
		C57.87,44.37,56.43,40.95,53.19,36.63z M58.41,33.39l1.92-1.56c4.44,5.76,6.42,10.74,6.42,16.14c0,5.46-2.04,10.56-6.42,16.14
		l-1.92-1.56c4.08-5.4,5.88-9.9,5.88-14.58C64.29,43.23,62.55,38.79,58.41,33.39z M63.69,30.03l1.98-1.5
		c4.98,6.54,7.5,12.66,7.5,19.38c0,6.72-2.52,13.02-7.5,19.56l-1.86-1.62c4.5-6.06,6.9-11.82,6.9-17.94S68.31,36.09,63.69,30.03z"/>
</g>
</svg>
